<svg xmlns="http://www.w3.org/2000/svg" width="41" height="40" viewBox="0 0 41 40" fill="none">
    <path d="M20.2196 0C18.6993 0 17.1791 0.150944 15.6588 0.528302C15.6588 0.603774 15.6588 0.679245 15.6588 0.754717V25.283C15.6588 25.8113 15.2027 26.1887 14.7466 26.1887H12.9223C12.5422 26.1887 12.2382 25.8868 12.2382 25.5094V1.58491C5.01689 4.60377 0 11.6981 0 19.8491C0 30.8679 9.04561 39.7736 20.2956 39.7736C31.5456 39.7736 40.5152 30.8679 40.5152 19.9245C40.5152 8.98113 31.3936 0 20.2196 0ZM19.8395 28.1509C19.8395 28.6038 19.4595 28.9811 19.0034 28.9811H17.1791C16.723 28.9811 16.3429 28.6038 16.3429 28.1509V15.5472C16.3429 15.0943 16.723 14.717 17.1791 14.717H19.0034C19.4595 14.717 19.8395 15.0943 19.8395 15.5472V28.1509ZM23.9443 29.3585C23.9443 29.8113 23.5642 30.1887 23.1081 30.1887H21.2838C20.8277 30.1887 20.4476 29.8113 20.4476 29.3585V14.3396C20.4476 13.8868 20.8277 13.5094 21.2838 13.5094H23.1081C23.5642 13.5094 23.9443 13.8868 23.9443 14.3396V29.3585ZM28.049 27.0943C28.049 27.5472 27.6689 27.9245 27.2128 27.9245H25.3885C24.9324 27.9245 24.5524 27.5472 24.5524 27.0943V16.7547C24.5524 16.3019 24.9324 15.9245 25.3885 15.9245H27.2128C27.6689 15.9245 28.049 16.3019 28.049 16.7547V27.0943Z" fill="#6B6B84"/>
</svg>
